<svg width="14" height="15" viewBox="0 0 14 15" fill="none" xmlns="http://www.w3.org/2000/svg">
<path d="M9.76592 9.62309L9.41164 10.0227C9.41164 10.0227 8.56962 10.9725 6.27129 8.37992C3.97298 5.78737 4.81498 4.83756 4.81498 4.83756L5.03806 4.58593C5.58763 3.96604 5.63943 2.97081 5.15996 2.24425L4.1792 0.758009C3.58577 -0.14125 2.43908 -0.260042 1.7589 0.5072L0.538104 1.88428C0.200844 2.26472 -0.0251625 2.75788 0.00224638 3.30495C0.072363 4.70455 0.63055 7.71584 3.74528 11.2293C7.04829 14.9552 10.1475 15.1033 11.4149 14.9693C11.8158 14.9268 12.1644 14.6953 12.4453 14.3783L13.5502 13.132C14.296 12.2908 14.0857 10.8485 13.1314 10.26L11.6455 9.34359C11.0189 8.95717 10.2556 9.07067 9.76592 9.62309Z" fill="#414141"/>
</svg>
