<svg width="22" height="24" viewBox="0 0 22 24" fill="none" xmlns="http://www.w3.org/2000/svg">
<path d="M15.0665 15.1569L14.5398 15.751C14.5398 15.751 13.2878 17.1633 9.87048 13.3085C6.45319 9.45369 7.70514 8.04145 7.70514 8.04145L8.03684 7.6673C8.85396 6.74561 8.93098 5.26584 8.21808 4.18554L6.75981 1.97569C5.87746 0.638613 4.17248 0.461985 3.16115 1.60277L1.34599 3.65032C0.844527 4.21597 0.508485 4.94923 0.549239 5.76266C0.653493 7.84369 1.48344 12.3211 6.11463 17.5452C11.0258 23.085 15.6339 23.3052 17.5183 23.106C18.1144 23.0429 18.6327 22.6986 19.0504 22.2273L20.6933 20.3742C21.8022 19.1234 21.4895 16.9789 20.0706 16.1039L17.8612 14.7413C16.9296 14.1668 15.7946 14.3355 15.0665 15.1569Z" fill="#F5F5F5"/>
</svg>
