<svg width="15" height="16" viewBox="0 0 15 16" fill="none" xmlns="http://www.w3.org/2000/svg">
<path d="M13.5303 10.5362L11.4094 10.294C11.16 10.2648 10.9072 10.2924 10.67 10.3748C10.4328 10.4572 10.2174 10.5924 10.0399 10.77L8.50351 12.3064C6.13323 11.1006 4.20658 9.17395 3.00077 6.80367L4.54554 5.25888C4.9046 4.89982 5.07995 4.39881 5.0215 3.88945L4.77935 1.78521C4.73218 1.37779 4.53675 1.00198 4.23029 0.729402C3.92384 0.456827 3.5278 0.306552 3.11767 0.307223H1.6731C0.72953 0.307223 -0.0553836 1.09214 0.00306741 2.03571C0.445625 9.16677 6.14877 14.8616 13.2714 15.3042C14.215 15.3626 14.9999 14.5777 14.9999 13.6341V12.1895C15.0083 11.3462 14.3737 10.6364 13.5303 10.5362Z" fill="#F5F5F5"/>
</svg>
