<svg width="46" height="46" viewBox="0 0 46 46" fill="none" xmlns="http://www.w3.org/2000/svg">
<circle cx="23" cy="23" r="23" fill="#ECA200"/>
<path d="M16.817 32.3606C16.8178 33.1088 16.5547 33.8332 16.0744 34.4067C15.5939 34.9803 14.9269 35.3661 14.1901 35.4966C13.4535 35.627 12.6943 35.4936 12.0462 35.1199C11.3982 34.7461 10.9025 34.1559 10.6464 33.453C10.3902 32.7501 10.39 31.9793 10.6458 31.2762C10.9015 30.5733 11.397 29.9829 12.0448 29.6087V22.3868C11.2304 21.9165 10.6657 21.1102 10.5025 20.1841C10.3391 19.258 10.5941 18.3071 11.1985 17.5866C11.8029 16.8663 12.695 16.4502 13.6355 16.4502C14.5758 16.4502 15.4681 16.8664 16.0726 17.5866C16.677 18.3071 16.9318 19.258 16.7686 20.1841C16.6052 21.1102 16.0406 21.9165 15.2262 22.3868V29.6087C16.2095 30.1764 16.8157 31.2251 16.8169 32.3606H16.817ZM19.4681 25.4675L32.1935 25.4677V23.3468H31.133V11.1514H20.5284V23.3468H19.4679L19.4681 25.4675ZM35.9055 17.6257V34.3701C35.9055 34.6809 35.7821 34.9789 35.5623 35.1987C35.3425 35.4186 35.0445 35.5419 34.7337 35.5419H16.4303C17.3477 34.7388 17.875 33.5798 17.8779 32.3605C17.8771 31.0734 17.2918 29.8563 16.2872 29.052V22.9439C17.2919 22.1394 17.8772 20.9222 17.8779 19.6353C17.8749 18.4159 17.3477 17.257 16.4303 16.4538H19.4686V22.2866H19.1399C18.9457 22.2866 18.7596 22.3635 18.6225 22.5009C18.4851 22.638 18.4082 22.8241 18.4082 23.0183V25.802V25.8018C18.4096 25.995 18.4873 26.1797 18.6243 26.3159C18.7614 26.452 18.9467 26.5284 19.1399 26.5284H32.528C32.7202 26.5268 32.9043 26.4499 33.0401 26.3141C33.1761 26.1781 33.253 25.994 33.2544 25.8018V23.0182C33.2544 22.825 33.178 22.6397 33.0421 22.5026C32.9059 22.3656 32.7212 22.2879 32.528 22.2865H32.1939V16.4538H34.7338C35.0446 16.4538 35.3426 16.5771 35.5624 16.7969C35.7822 17.0168 35.9055 17.3147 35.9055 17.6255L35.9055 17.6257ZM23.7101 32.891C23.7101 32.7505 23.6542 32.6155 23.5548 32.5161C23.4553 32.4166 23.3204 32.3608 23.1798 32.3608H22.1194C21.8265 32.3608 21.5892 32.5982 21.5892 32.891C21.5892 33.1838 21.8266 33.4212 22.1194 33.4212H23.1798C23.3203 33.4212 23.4553 33.3654 23.5548 33.2659C23.6542 33.1665 23.7101 33.0317 23.7101 32.891ZM23.7101 31.3003C23.7101 31.1598 23.6542 31.0248 23.5548 30.9254C23.4553 30.8259 23.3204 30.7701 23.1798 30.7701H22.1194C21.8265 30.7701 21.5892 31.0075 21.5892 31.3003C21.5892 31.5931 21.8266 31.8305 22.1194 31.8305H23.1798C23.3203 31.8305 23.4553 31.7747 23.5548 31.6752C23.6542 31.5758 23.7101 31.441 23.7101 31.3003ZM23.7101 29.7096C23.7101 29.5691 23.6542 29.4341 23.5548 29.3347C23.4553 29.2354 23.3204 29.1794 23.1798 29.1794H22.1194C21.8265 29.1794 21.5892 29.4168 21.5892 29.7096C21.5892 30.0025 21.8266 30.2398 22.1194 30.2398H23.1798C23.3203 30.2398 23.4553 30.184 23.5548 30.0845C23.6542 29.9853 23.7101 29.8503 23.7101 29.7096ZM26.8915 32.8911C26.8915 32.7506 26.8355 32.6156 26.7362 32.5161C26.6368 32.4167 26.5018 32.3608 26.3613 32.3608H25.3008C25.008 32.3608 24.7706 32.5982 24.7706 32.891C24.7706 33.1839 25.008 33.4213 25.3008 33.4213H26.3613C26.5018 33.4213 26.6368 33.3654 26.7362 33.266C26.8355 33.1665 26.8915 33.0318 26.8915 32.8911ZM26.8915 31.3004C26.8915 31.1599 26.8355 31.0249 26.7362 30.9254C26.6368 30.826 26.5018 30.7701 26.3613 30.7701H25.3008C25.008 30.7701 24.7706 31.0075 24.7706 31.3004C24.7706 31.5932 25.008 31.8306 25.3008 31.8306H26.3613C26.5018 31.8306 26.6368 31.7747 26.7362 31.6753C26.8355 31.5758 26.8915 31.4411 26.8915 31.3004ZM26.8915 29.7097C26.8915 29.5692 26.8355 29.4342 26.7362 29.3347C26.6368 29.2355 26.5018 29.1794 26.3613 29.1794H25.3008C25.008 29.1794 24.7706 29.4168 24.7706 29.7097C24.7706 30.0025 25.008 30.2399 25.3008 30.2399H26.3613C26.5018 30.2399 26.6368 30.184 26.7362 30.0846C26.8355 29.9853 26.8915 29.8504 26.8915 29.7097ZM30.0727 32.8911C30.0727 32.7506 30.0169 32.6156 29.9174 32.5162C29.8182 32.4167 29.6832 32.3609 29.5425 32.3609H28.4821C28.1892 32.3609 27.9518 32.5983 27.9518 32.8911C27.9518 33.1839 28.1892 33.4213 28.4821 33.4213H29.5425C29.6832 33.4213 29.8182 33.3655 29.9174 33.266C30.0169 33.1666 30.0727 33.0318 30.0727 32.8911ZM30.0727 31.3004C30.0727 31.1599 30.0169 31.0249 29.9174 30.9255C29.8182 30.826 29.6832 30.7702 29.5425 30.7702H28.4821C28.1892 30.7702 27.9518 31.0076 27.9518 31.3004C27.9518 31.5932 28.1892 31.8306 28.4821 31.8306H29.5425C29.6832 31.8306 29.8182 31.7748 29.9174 31.6753C30.0169 31.5759 30.0727 31.4411 30.0727 31.3004ZM30.0727 29.7097C30.0727 29.5692 30.0169 29.4342 29.9174 29.3348C29.8182 29.2355 29.6832 29.1795 29.5425 29.1795H28.4821C28.1892 29.1795 27.9518 29.4169 27.9518 29.7097C27.9518 30.0026 28.1892 30.2399 28.4821 30.2399H29.5425C29.6832 30.2399 29.8182 30.1841 29.9174 30.0846C30.0169 29.9854 30.0727 29.8504 30.0727 29.7097Z" fill="#F5F5F5"/>
</svg>
