<svg width="12" height="16" viewBox="0 0 12 16" fill="none" xmlns="http://www.w3.org/2000/svg">
<path fill-rule="evenodd" clip-rule="evenodd" d="M5.67871 4.83203C4.93651 4.83203 4.33496 5.43358 4.33496 6.17578C4.33496 6.91798 4.93651 7.51953 5.67871 7.51953C6.42091 7.51953 7.02246 6.91798 7.02246 6.17578C7.02246 5.43358 6.42091 4.83203 5.67871 4.83203ZM5.67871 8.41536C4.44201 8.41536 3.43913 7.41293 3.43913 6.17578C3.43913 4.93864 4.44201 3.9362 5.67871 3.9362C6.91541 3.9362 7.91829 4.93864 7.91829 6.17578C7.91829 7.41293 6.91541 8.41536 5.67871 8.41536ZM5.67871 0.800781C2.71037 0.800781 0.303711 3.20744 0.303711 6.17578C0.303711 8.42343 4.78512 15.139 5.67871 15.1341C6.55842 15.139 11.0537 8.39297 11.0537 6.17578C11.0537 3.20744 8.64705 0.800781 5.67871 0.800781Z" fill="#E8E8E8"/>
</svg>
