<svg width="280" height="43" viewBox="0 0 280 43" fill="none" xmlns="http://www.w3.org/2000/svg">
<path fill-rule="evenodd" clip-rule="evenodd" d="M17.59 17.7754L2.88333 1.02387H0.354492V22.5891H3.28945V5.98078L17.8712 22.5895H20.5565V1.02387H17.59V17.7754ZM26.5029 22.5911H29.6251V1.02387H26.5029V22.5891V22.5911ZM33.3079 22.5911H36.5165L39.2417 16.2005H48.5474L51.4541 22.5911H54.6515L44.8703 0.9007H42.6758L33.3079 22.5911ZM40.4812 13.4525L43.7446 5.64164L47.2634 13.4525H40.4812ZM61.439 10.8901V1.02387H58.3164V22.5891H61.439V11.9383L72.5863 22.5895H76.8483L65.0616 11.2575L74.5221 1.02387H70.6189L61.439 10.8901ZM78.0953 22.5915H81.3039L84.0292 16.2009H93.3344L96.2411 22.5915H99.4385L89.6566 0.9007H87.462L78.0953 22.5915ZM85.2687 13.4529L88.5321 5.64205L92.0508 13.4529H85.2687ZM120.402 17.7759L105.696 1.02387H103.167V22.5891H106.1V5.98078L120.682 22.5895H123.367V1.02387H120.401V17.7754L120.402 17.7759ZM139.149 19.6896C138.971 19.8621 138.83 20.069 138.736 20.2973C138.642 20.5256 138.597 20.7705 138.602 21.017C138.597 21.2588 138.643 21.4991 138.737 21.7224C138.831 21.9457 138.971 22.1471 139.149 22.3136C139.326 22.4855 139.535 22.6205 139.766 22.7107C139.997 22.8009 140.243 22.8444 140.491 22.8387C140.743 22.8449 140.993 22.8017 141.228 22.7116C141.462 22.6214 141.676 22.4862 141.857 22.3136C142.037 22.1481 142.179 21.9472 142.274 21.7237C142.37 21.5003 142.417 21.2595 142.412 21.017C142.417 20.7692 142.369 20.5231 142.272 20.2946C142.175 20.066 142.031 19.8599 141.849 19.6896C141.671 19.5142 141.459 19.376 141.226 19.2831C140.992 19.1903 140.743 19.1448 140.491 19.1492C140.242 19.1437 139.995 19.1886 139.764 19.2812C139.533 19.3738 139.324 19.512 139.149 19.6875V19.6896ZM153.475 3.74313H166.537L152.585 22.5915H172.272V19.8439H158.34L172.274 0.995545H153.477V3.74313H153.475ZM191.677 13.2685C191.677 14.9656 191.542 16.1645 191.271 16.8652C190.993 17.5749 190.536 18.2021 189.943 18.6869C188.777 19.6449 187.268 20.124 185.416 20.124C184.246 20.1524 183.085 19.9065 182.028 19.4063C181.142 18.9918 180.398 18.3289 179.89 17.5C179.421 16.7075 179.187 15.2979 179.187 13.271V1.02387H176.049V13.2345C176.002 14.5201 176.12 15.8064 176.4 17.0627C176.596 17.788 176.896 18.4819 177.29 19.1234C177.654 19.6895 178.098 20.2011 178.609 20.6425C180.326 22.1036 182.605 22.8343 185.448 22.8346C188.237 22.8346 190.495 22.0987 192.223 20.6269C192.736 20.1931 193.181 19.6857 193.542 19.1217C193.943 18.4652 194.248 17.7558 194.448 17.0146C194.734 15.7853 194.858 14.5244 194.815 13.2636V1.02387H191.677V13.2652L191.677 13.2685ZM217.718 17.7754L203.01 1.02387H200.481V22.5891H203.416V5.98078L217.998 22.5895H220.683V1.02387H217.718V17.7754ZM226.63 22.5911H229.753V1.02387H226.63V22.5891V22.5911ZM247.625 14.7183H251.827V19.2104L251.528 19.3032C250.089 19.8151 248.577 20.1015 247.048 20.1523C244.478 20.1523 242.375 19.3752 240.74 17.821C239.17 16.2264 238.291 14.0884 238.291 11.8625C238.291 9.63658 239.17 7.4986 240.74 5.904C241.527 5.11867 242.468 4.50012 243.504 4.08611C244.541 3.67209 245.652 3.47129 246.77 3.49596C249.507 3.54616 252.18 4.31885 254.514 5.73402V2.58407C253.158 1.99731 251.759 1.51482 250.328 1.14088C249.183 0.873852 248.009 0.741687 246.832 0.747141C243.46 0.747141 240.655 1.81752 238.415 3.95827C237.318 4.99262 236.453 6.24271 235.875 7.62793C235.298 9.01315 235.02 10.5028 235.06 12.0007C235.029 13.4378 235.3 14.8657 235.858 16.1933C236.416 17.5208 237.247 18.719 238.299 19.7113C240.458 21.7954 243.344 22.8375 246.957 22.8375C249.713 22.8129 252.435 22.2243 254.95 21.1085V11.9691H247.625V14.7166V14.7183ZM258.351 22.5911H261.561L264.285 16.2005H273.59L276.497 22.5911H279.694L269.91 0.9007H267.718L258.351 22.5911ZM265.526 13.4525L268.786 5.64164L272.307 13.4525H265.526Z" fill="#ECA200"/>
<path fill-rule="evenodd" clip-rule="evenodd" d="M5.24702 42.0924C5.70963 41.8797 6.10559 41.5475 6.3931 41.1308C6.65509 40.7324 6.79099 40.2658 6.78343 39.7907C6.7939 39.1857 6.56331 38.601 6.14146 38.1627C5.67754 37.6906 5.07099 37.3803 4.41321 37.2787C5.42115 36.8624 5.92512 36.1725 5.92512 35.209C5.94038 34.7419 5.81414 34.2809 5.56259 33.8852C5.31103 33.4895 4.94564 33.1771 4.51329 32.9882C3.906 32.7433 3.2521 32.6319 2.59694 32.6618H0V42.4643H3.35641C4.00718 42.486 4.65422 42.3587 5.24702 42.0924ZM4.45598 35.3211C4.46287 35.5293 4.42353 35.7364 4.34074 35.9279C4.25795 36.1195 4.13372 36.2907 3.97679 36.4297C3.50814 36.7595 2.93504 36.9116 2.36232 36.8579H1.41765V33.9112H2.63805C3.8489 33.9112 4.45446 34.3813 4.45474 35.3215L4.45598 35.3211ZM4.29279 38.2892C4.59585 38.3936 4.8595 38.587 5.04854 38.8434C5.22296 39.0824 5.31616 39.3699 5.31471 39.6646C5.31456 39.9546 5.22679 40.238 5.06265 40.4784C4.90113 40.7255 4.66904 40.9197 4.39578 41.0363C3.88444 41.1868 3.35036 41.2474 2.81784 41.2154H1.41765V38.1069H2.74642C3.26852 38.0829 3.79104 38.1445 4.29279 38.2892ZM15.646 38.2259C15.6745 38.7772 15.6122 39.3294 15.4616 39.8609C15.3356 40.1834 15.1278 40.4686 14.8583 40.689C14.273 41.1424 13.5431 41.3738 12.8003 41.3414C12.2676 41.3541 11.7394 41.2419 11.2589 41.0142C10.856 40.8257 10.518 40.5243 10.2868 40.1474C10.0267 39.5409 9.91717 38.8816 9.96753 38.2247V32.6618H8.54116V38.212C8.51993 38.7963 8.57351 39.381 8.70062 39.952C8.78952 40.2818 8.92572 40.5973 9.10507 40.8889C9.27042 41.1465 9.47236 41.3792 9.70468 41.58C10.5826 42.2771 11.6886 42.6317 12.8132 42.5764C13.9296 42.6271 15.0258 42.27 15.8931 41.573C16.1262 41.3756 16.3282 41.1451 16.4927 40.8889C16.6748 40.5904 16.8133 40.2679 16.9042 39.9311C17.034 39.3722 17.0898 38.799 17.0703 38.2259V32.6618H15.6435V38.2259H15.646ZM23.3662 40.0551C23.3687 40.2317 23.33 40.4065 23.2531 40.5659C23.1761 40.7253 23.0631 40.8651 22.9227 40.9743C22.6094 41.2251 22.2149 41.3555 21.812 41.3414C20.8046 41.3414 19.9176 40.8613 19.1511 39.9011V41.6834C19.918 42.2663 20.8592 42.5804 21.8265 42.5764C22.5893 42.6088 23.3347 42.3444 23.9027 41.8398C24.1665 41.5955 24.3743 41.2981 24.5121 40.9676C24.6498 40.6371 24.7143 40.2813 24.7012 39.9241C24.7012 38.8202 24.0966 37.9112 22.8874 37.197L21.8032 36.5627C21.4084 36.3522 21.0507 36.0795 20.7444 35.7555C20.5367 35.5294 20.4196 35.2361 20.4151 34.9306C20.4146 34.7688 20.4553 34.6094 20.5333 34.4672C20.6114 34.3249 20.7244 34.2043 20.8619 34.1165C21.199 33.8932 21.5992 33.7819 22.0046 33.7987C22.4381 33.8096 22.865 33.9053 23.2608 34.0802C23.6566 34.2551 24.0135 34.5058 24.3109 34.8177V33.2251C23.6402 32.7714 22.8455 32.5307 22.0329 32.5353C21.2618 32.5022 20.5069 32.7607 19.9218 33.2584C19.6552 33.4937 19.4442 33.7842 19.3037 34.1091C19.1633 34.4341 19.0969 34.7856 19.1091 35.1388C19.101 35.6274 19.2515 36.1057 19.5385 36.5036C19.9361 36.9943 20.4267 37.4038 20.9827 37.709L22.0623 38.3569C22.933 38.8923 23.3683 39.4584 23.3683 40.0551H23.3662ZM26.8426 42.4643H28.2619V32.6618H26.8426V42.4643ZM38.9055 40.2751L32.2201 32.6618H31.0702V42.4643H32.4044V34.9146L39.0325 42.4643H40.253V32.6618H38.9047V40.2751H38.9055ZM42.9425 42.4512H48.6978V41.2022H44.3618V38.157H48.4233V36.901H44.3639V33.9112H48.5649V32.6622H42.9421L42.9425 42.4512ZM54.5374 40.0563C54.5399 40.2329 54.5011 40.4077 54.4242 40.5671C54.3473 40.7266 54.2343 40.8663 54.0939 40.9756C53.7805 41.2264 53.386 41.3567 52.9831 41.3426C51.9757 41.3426 51.0888 40.8625 50.3222 39.9023V41.6846C51.0891 42.2674 52.0301 42.5816 52.9972 42.5777C53.7601 42.6099 54.5053 42.3455 55.0734 41.8411C55.3373 41.5967 55.5451 41.2993 55.6828 40.9688C55.8206 40.6383 55.8851 40.2825 55.872 39.9253C55.872 38.8214 55.2674 37.9124 54.0582 37.1983L52.974 36.5639C52.5791 36.3534 52.2215 36.0808 51.9151 35.7567C51.7074 35.5306 51.5903 35.2373 51.5858 34.9319C51.5852 34.77 51.6259 34.6106 51.7039 34.4683C51.782 34.326 51.895 34.2055 52.0326 34.1177C52.3697 33.8945 52.77 33.7831 53.1754 33.7999C53.6088 33.8108 54.0357 33.9065 54.4316 34.0814C54.8274 34.2563 55.1843 34.507 55.4816 34.819V33.2263C54.811 32.7726 54.0162 32.532 53.2036 32.5366C52.4325 32.5034 51.6776 32.7619 51.0925 33.2596C50.8259 33.495 50.6149 33.7854 50.4745 34.1104C50.334 34.4353 50.2676 34.7869 50.2799 35.14C50.2717 35.6286 50.4223 36.107 50.7092 36.5048C51.1069 36.9956 51.5974 37.405 52.1535 37.7103L53.2331 38.3581C54.1037 38.8935 54.539 39.4596 54.539 40.0563H54.5374ZM61.7605 40.0563C61.763 40.2329 61.7243 40.4077 61.6474 40.5671C61.5705 40.7266 61.4574 40.8663 61.3171 40.9756C61.0038 41.2263 60.6095 41.3567 60.2067 41.3426C59.199 41.3426 58.3119 40.8625 57.5454 39.9023V41.6846C58.3123 42.2675 59.2535 42.5817 60.2208 42.5777C60.9837 42.6099 61.7289 42.3455 62.297 41.8411C62.5607 41.5966 62.7684 41.2992 62.9061 40.9687C63.0437 40.6383 63.1082 40.2825 63.0951 39.9253C63.0951 38.8214 62.4905 37.9124 61.2813 37.1983L60.1976 36.5639C59.8026 36.3534 59.4448 36.0808 59.1383 35.7567C58.9306 35.5306 58.8135 35.2373 58.809 34.9319C58.8085 34.77 58.8492 34.6105 58.9274 34.4683C59.0055 34.326 59.1186 34.2054 59.2562 34.1177C59.5932 33.8945 59.9933 33.7832 60.3985 33.7999C60.832 33.8108 61.2589 33.9065 61.6548 34.0814C62.0506 34.2563 62.4075 34.507 62.7048 34.819V33.2263C62.0342 32.7725 61.2394 32.5319 60.4268 32.5366C59.6557 32.5035 58.9009 32.762 58.3157 33.2596C58.0491 33.495 57.8381 33.7854 57.6977 34.1104C57.5572 34.4353 57.4908 34.7869 57.503 35.14C57.4949 35.6286 57.6454 36.107 57.9324 36.5048C58.3301 36.9955 58.8207 37.4049 59.3766 37.7103L60.4563 38.3581C61.3266 38.8935 61.7618 39.4596 61.7618 40.0563H61.7605ZM69.8275 42.4656H75.7103V41.1883H71.2468V32.6618H69.8275V42.4643V42.4656ZM77.5332 42.4656H78.9525V32.6618H77.5319V42.4643L77.5332 42.4656ZM80.8751 33.898H84.2743V42.4656H85.7006V33.8968H89.1563V32.6478H80.8751V33.8968V33.898ZM91.0789 42.4656H92.4978V32.6618H91.0789V42.4643V42.4656ZM100.622 38.887H102.533V40.9288L102.398 40.9698C101.744 41.2023 101.058 41.3325 100.363 41.3558C99.8386 41.3756 99.3151 41.2922 98.8233 41.1103C98.3314 40.9285 97.881 40.6519 97.4981 40.2965C96.7835 39.5719 96.3836 38.5999 96.3836 37.5879C96.3836 36.5759 96.7835 35.6039 97.4981 34.8793C97.8557 34.5222 98.2831 34.2409 98.7543 34.0527C99.2256 33.8645 99.7307 33.7733 100.239 33.7847C101.483 33.8075 102.698 34.1588 103.759 34.8021V33.3709C103.143 33.1038 102.507 32.8841 101.857 32.7139C101.336 32.5925 100.803 32.5325 100.267 32.5349C99.5636 32.5139 98.8626 32.6322 98.2057 32.8828C97.5488 33.1335 96.9492 33.5115 96.4422 33.9945C95.9439 34.4645 95.5507 35.0325 95.288 35.6618C95.0252 36.2912 94.8987 36.968 94.9166 37.6487C94.9023 38.3019 95.0259 38.951 95.2794 39.5544C95.5329 40.1578 95.9108 40.7024 96.389 41.1534C96.9159 41.6378 97.5354 42.0131 98.2112 42.2571C98.887 42.5012 99.6053 42.609 100.324 42.5744C101.577 42.5635 102.814 42.2959 103.957 41.7885V37.6368H100.629V38.8857L100.622 38.887ZM105.497 42.4656H106.955L108.194 39.5603H112.424L113.745 42.4656H115.198L110.751 32.6055H109.755L105.497 42.4656ZM108.757 38.3113L110.241 34.7611L111.84 38.3113H108.758H108.757ZM114.551 33.898H117.95V42.4656H119.377V33.8968H122.833V32.6478H114.551V33.8968V33.898ZM124.755 42.4656H126.174V32.6618H124.755V42.4643V42.4656ZM130.004 33.9613C129.511 34.4297 129.122 34.995 128.863 35.621C128.604 36.247 128.481 36.9197 128.501 37.5957C128.484 38.2597 128.608 38.9198 128.865 39.5333C129.123 40.1468 129.508 40.6999 129.996 41.1566C130.491 41.6269 131.077 41.9947 131.718 42.2387C132.359 42.4827 133.043 42.5979 133.729 42.5777C135.164 42.6256 136.561 42.1155 137.619 41.1566C138.122 40.7026 138.519 40.1472 138.785 39.528C139.051 38.9088 139.18 38.2403 139.162 37.5678C139.179 36.894 139.052 36.2243 138.788 35.6026C138.525 34.981 138.131 34.4216 137.634 33.9613C137.123 33.4843 136.522 33.1118 135.866 32.8652C135.209 32.6186 134.51 32.5027 133.808 32.5242C133.109 32.5008 132.412 32.6158 131.759 32.8623C131.106 33.1089 130.509 33.4821 130.004 33.96V33.9613ZM136.588 34.9187C136.948 35.2548 137.233 35.6616 137.424 36.113C137.615 36.5644 137.708 37.0503 137.698 37.5395C137.711 38.0368 137.618 38.5313 137.427 38.9916C137.236 39.4519 136.951 39.8678 136.588 40.2131C135.838 40.8995 134.855 41.2825 133.833 41.2864C132.811 41.2903 131.824 40.9147 131.069 40.2341C130.71 39.8945 130.426 39.4844 130.237 39.03C130.048 38.5755 129.957 38.087 129.97 37.5957C129.953 37.0971 130.042 36.6005 130.231 36.1378C130.419 35.6751 130.704 35.2564 131.065 34.9085C131.437 34.5572 131.876 34.283 132.356 34.1022C132.836 33.9214 133.349 33.8376 133.862 33.8558C134.365 33.8438 134.866 33.9316 135.334 34.1139C135.802 34.2963 136.229 34.5695 136.588 34.9175V34.9187ZM149.349 40.2751L142.664 32.6618H141.514V42.4643H142.85V34.9146L149.478 42.4643H150.698V32.6618H149.35L149.349 40.2751ZM165.911 42.4643L163.899 40.1651C164.582 39.4054 165.128 38.5357 165.513 37.5937H164.094C163.817 38.1681 163.458 38.7001 163.028 39.1736L161.631 37.5998L161.731 37.5226C162.89 36.7127 163.47 35.8789 163.47 35.0214C163.478 34.7267 163.419 34.4339 163.299 34.1641C163.179 33.8944 162.999 33.6543 162.774 33.4612C162.282 33.0437 161.648 32.8253 161 32.8498C160.345 32.8222 159.704 33.046 159.212 33.4743C158.985 33.6803 158.806 33.9325 158.687 34.2136C158.568 34.4946 158.512 34.7978 158.523 35.1023C158.523 35.8273 158.897 36.5851 159.644 37.3756C159.363 37.5326 159.093 37.7085 158.836 37.902L158.814 37.9229C158.365 38.2261 157.976 38.6093 157.668 39.0528C157.433 39.425 157.311 39.8561 157.317 40.2948C157.313 40.5994 157.374 40.9014 157.498 41.1804C157.622 41.4594 157.805 41.7089 158.034 41.9121C158.506 42.3517 159.134 42.5899 159.781 42.5752C160.262 42.566 160.736 42.4657 161.178 42.2796C161.628 42.108 162.048 41.8681 162.423 41.5685L162.438 41.5545C162.616 41.4205 162.787 41.2772 162.949 41.125L164.103 42.4631H165.91L165.911 42.4643ZM160.862 41.0187C160.583 41.1555 160.277 41.2321 159.965 41.2433C159.648 41.251 159.338 41.1465 159.093 40.9485C158.981 40.866 158.89 40.7591 158.827 40.636C158.765 40.513 158.732 40.3772 158.731 40.2394C158.731 39.7344 159.1 39.2361 159.838 38.7445L160.461 38.3093L162.073 40.1474L161.753 40.4348C161.49 40.6757 161.189 40.8729 160.862 41.0187ZM160.175 35.8187C160.028 35.5618 159.946 35.2737 159.936 34.9787C159.933 34.852 159.959 34.7264 160.012 34.6109C160.065 34.4955 160.143 34.3931 160.241 34.3111C160.465 34.1347 160.744 34.0404 161.03 34.0443C161.317 34.0482 161.593 34.15 161.812 34.3324C161.914 34.4225 161.995 34.5332 162.05 34.6571C162.104 34.781 162.131 34.915 162.128 35.0501C162.116 35.3005 162.04 35.5438 161.908 35.7577C161.775 35.9716 161.591 36.1492 161.371 36.2745L160.829 36.6542C160.564 36.4147 160.343 36.1321 160.175 35.8187ZM169.585 33.8968H172.984V42.4643H174.411V33.8968H177.867V32.6478H169.585V33.8968ZM181.236 42.4643V38.198H181.606C181.944 38.1754 182.283 38.2293 182.597 38.3557C182.84 38.4965 183.062 38.6697 183.258 38.8705C183.552 39.1685 183.821 39.4899 184.063 39.8313L184.538 40.5966L184.977 41.3127L185.253 41.699C185.295 41.7553 185.324 41.7951 185.336 41.8181L185.769 42.4643H187.458L186.933 41.7627C186.725 41.4818 186.448 41.063 186.102 40.5063C185.718 39.8594 185.291 39.2383 184.824 38.6472C184.557 38.3236 184.244 38.04 183.895 37.8051C184.4 37.6341 184.835 37.307 185.136 36.8722C185.438 36.4375 185.59 35.9182 185.57 35.3913C185.586 35.0145 185.515 34.639 185.362 34.2935C185.209 33.9481 184.978 33.6419 184.686 33.3984C184.005 32.8773 183.158 32.6159 182.298 32.6618H179.815V42.4643H181.234H181.236ZM183.156 34.0089C183.443 34.1019 183.69 34.2888 183.855 34.539C184.02 34.7877 184.107 35.0796 184.104 35.3773C184.109 35.6718 184.032 35.962 183.881 36.2158C183.735 36.4583 183.518 36.6506 183.258 36.7667C182.78 36.9185 182.279 36.9804 181.778 36.949H181.238V33.8545H181.664C182.166 33.8323 182.669 33.8843 183.156 34.0089ZM189.136 42.4643H190.555V32.6618H189.136V42.4643ZM192.229 42.4643H193.687L194.926 39.5591H199.155L200.477 42.4643H201.93L197.487 32.6055H196.49L192.229 42.4643ZM195.489 38.3101L196.972 34.7598L198.572 38.3101H195.489ZM203.582 42.4643H209.463V41.187H205V32.6618H203.58V42.4643H203.582ZM215.879 42.4643H221.761V41.187H217.296V32.6618H215.877V42.4643H215.879ZM222.477 42.4643H223.936L225.174 39.5591H229.405L230.726 42.4643H232.179L227.732 32.6055H226.735L222.477 42.4643ZM225.738 38.3101L227.221 34.7598L228.82 38.3101H225.738ZM242.589 39.4187L239.828 32.6614H238.487L235.738 39.4187L233.005 32.6614H231.573L235.571 42.5058H235.875L239.151 34.5348L242.39 42.5058H242.701L246.712 32.6614H245.297L242.589 39.4187ZM251.65 36.0408L248.996 32.6614H247.286L250.948 37.2783V42.4639H252.401V37.2779L256.064 32.661H254.341L251.65 36.0408ZM257.721 42.4496H263.476V41.2006H259.141V38.1553H263.202V36.8994H259.141V33.9112H263.343V32.6622H257.721V42.4512V42.4496ZM267.018 42.4639V38.198H267.388C267.726 38.1756 268.065 38.2295 268.38 38.3557C268.622 38.4971 268.845 38.6703 269.04 38.8705C269.335 39.1687 269.604 39.49 269.846 39.8313L270.319 40.5966L270.759 41.3127L271.033 41.699C271.065 41.7364 271.095 41.7762 271.121 41.8181L271.552 42.4643H273.242L272.715 41.7627C272.507 41.4818 272.233 41.0647 271.885 40.5063C271.502 39.8593 271.076 39.2382 270.61 38.6472C270.342 38.324 270.029 38.0404 269.68 37.8051C270.184 37.6343 270.619 37.3072 270.921 36.8723C271.222 36.4375 271.374 35.9181 271.353 35.3913C271.369 35.0144 271.298 34.6388 271.145 34.2934C270.991 33.9479 270.76 33.6418 270.469 33.3984C269.788 32.8766 268.941 32.615 268.081 32.6618H265.598V42.4643L267.018 42.4639ZM268.936 34.0085C269.225 34.1009 269.472 34.2879 269.638 34.5385C269.803 34.7876 269.888 35.0796 269.883 35.3769C269.89 35.6712 269.813 35.9614 269.663 36.2153C269.517 36.4587 269.298 36.6512 269.036 36.7663C268.559 36.9182 268.058 36.9801 267.558 36.9486H267.018V33.8541H267.446C267.947 33.8319 268.449 33.8841 268.935 34.0089L268.936 34.0085ZM278.661 40.0547C278.664 40.2314 278.626 40.4065 278.549 40.5661C278.472 40.7256 278.358 40.8652 278.217 40.9739C277.905 41.2247 277.511 41.3551 277.108 41.341C276.099 41.341 275.215 40.861 274.447 39.9007V41.683C275.213 42.2652 276.154 42.5793 277.121 42.576C277.884 42.6082 278.629 42.3438 279.197 41.8394C279.461 41.5952 279.669 41.2978 279.808 40.9674C279.946 40.637 280.011 40.2811 279.998 39.9237C279.998 38.8198 279.394 37.9108 278.184 37.1966L277.1 36.5623C276.705 36.3525 276.347 36.0798 276.041 35.7551C275.833 35.5293 275.714 35.236 275.709 34.9302C275.709 34.7682 275.75 34.6087 275.828 34.4664C275.906 34.3241 276.02 34.2036 276.157 34.1161C276.494 33.8928 276.894 33.7815 277.299 33.7983C277.733 33.8096 278.16 33.9055 278.556 34.0803C278.953 34.2552 279.31 34.5057 279.608 34.8173V33.2247C278.937 32.7715 278.142 32.5309 277.328 32.5349C276.558 32.5011 275.803 32.7598 275.219 33.2579C274.952 33.4929 274.74 33.7833 274.6 34.1083C274.459 34.4334 274.393 34.7851 274.405 35.1384C274.396 35.6269 274.546 36.1052 274.833 36.5032C275.231 36.9938 275.722 37.4032 276.278 37.7086L277.358 38.3565C278.225 38.8919 278.66 39.4579 278.661 40.0547Z" fill="#ECA200"/>
</svg>
