<svg width="18" height="15" viewBox="0 0 18 15" fill="none" xmlns="http://www.w3.org/2000/svg">
<path fill-rule="evenodd" clip-rule="evenodd" d="M1.28571 0H16.7143C17.4234 0 18 0.544531 18 1.21429V10.9286C18 11.5983 17.4234 12.1429 16.7143 12.1429L16.7183 14.5657L12.8692 12.1429H1.28571C0.576563 12.1429 0 11.5983 0 10.9286V1.21429C0 0.544531 0.576563 0 1.28571 0ZM2.78431 5.92994C2.55659 5.70222 2.42865 5.39336 2.42865 5.07131C2.42865 4.74926 2.55659 4.4404 2.78431 4.21268C3.01203 3.98496 3.32089 3.85702 3.64294 3.85702C3.96499 3.85702 4.27384 3.98496 4.50157 4.21268C4.72929 4.4404 4.85722 4.74926 4.85722 5.07131C4.85722 5.39336 4.72929 5.70222 4.50157 5.92994C4.27384 6.15766 3.96499 6.28559 3.64294 6.28559C3.32089 6.28559 3.01203 6.15766 2.78431 5.92994ZM7.28596 5.07131C7.28596 5.39336 7.41389 5.70222 7.64161 5.92994C7.86934 6.15766 8.17819 6.28559 8.50024 6.28559C8.82229 6.28559 9.13115 6.15766 9.35887 5.92994C9.58659 5.70222 9.71453 5.39336 9.71453 5.07131C9.71453 4.74926 9.58659 4.4404 9.35887 4.21268C9.13115 3.98496 8.82229 3.85702 8.50024 3.85702C8.17819 3.85702 7.86934 3.98496 7.64161 4.21268C7.41389 4.4404 7.28596 4.74926 7.28596 5.07131ZM12.4984 5.92994C12.2706 5.70222 12.1427 5.39336 12.1427 5.07131C12.1427 4.74926 12.2706 4.4404 12.4984 4.21268C12.7261 3.98496 13.0349 3.85702 13.357 3.85702C13.679 3.85702 13.9879 3.98496 14.2156 4.21268C14.4433 4.4404 14.5713 4.74926 14.5713 5.07131C14.5713 5.39336 14.4433 5.70222 14.2156 5.92994C13.9879 6.15766 13.679 6.28559 13.357 6.28559C13.0349 6.28559 12.7261 6.15766 12.4984 5.92994Z" fill="#414141"/>
</svg>
