<svg width="21" height="20" viewBox="0 0 21 20" fill="none" xmlns="http://www.w3.org/2000/svg">
<path d="M9.85394 1.81761C10.2208 1.07444 11.2805 1.07444 11.6474 1.81761L13.737 6.0509C13.8825 6.34575 14.1637 6.55021 14.489 6.59776L19.1635 7.28101C19.9834 7.40085 20.3102 8.40869 19.7166 8.98685L16.3358 12.2798C16.0999 12.5096 15.9922 12.8407 16.0479 13.1652L16.8456 17.8161C16.9857 18.6331 16.1282 19.256 15.3945 18.8702L11.2161 16.6728C10.9247 16.5196 10.5766 16.5196 10.2852 16.6728L6.10678 18.8702C5.37315 19.256 4.51561 18.6331 4.65572 17.8161L5.45341 13.1652C5.50907 12.8407 5.4014 12.5096 5.16553 12.2798L1.78466 8.98685C1.19107 8.40869 1.51785 7.40085 2.33777 7.28101L7.01227 6.59776C7.33762 6.55021 7.61881 6.34575 7.76435 6.0509L9.85394 1.81761Z" stroke="#FFB800" stroke-linecap="round" stroke-linejoin="round"/>
</svg>
