<svg width="26" height="25" viewBox="0 0 26 25" fill="none" xmlns="http://www.w3.org/2000/svg">
<path d="M6.81699 21.3606C6.81778 22.1088 6.55474 22.8332 6.07444 23.4067C5.59394 23.9803 4.92694 24.3661 4.19009 24.4966C3.45345 24.627 2.69433 24.4936 2.04624 24.1199C1.3982 23.7461 0.902476 23.1559 0.646353 22.453C0.390215 21.7501 0.390018 20.9793 0.645761 20.2762C0.901505 19.5733 1.397 18.9829 2.04484 18.6087V11.3868C1.23045 10.9165 0.665665 10.1102 0.502494 9.18412C0.339101 8.25804 0.594056 7.3071 1.19847 6.58662C1.80291 5.86635 2.69505 5.45018 3.63553 5.45018C4.57581 5.45018 5.46815 5.86636 6.07259 6.58662C6.67703 7.3071 6.93178 8.25804 6.76856 9.18412C6.60517 10.1102 6.04061 10.9165 5.22622 11.3868V18.6087C6.20954 19.1764 6.81575 20.2251 6.81691 21.3606H6.81699ZM9.46814 14.4675L22.1935 14.4677V12.3468H21.133V0.151367H10.5284V12.3468H9.46794L9.46814 14.4675ZM25.9055 6.62567V23.3701C25.9055 23.6809 25.7821 23.9789 25.5623 24.1987C25.3425 24.4186 25.0445 24.5419 24.7337 24.5419H6.43028C7.34768 23.7388 7.87498 22.5798 7.87791 21.3605C7.87712 20.0734 7.29181 18.8563 6.28722 18.052V11.9439C7.29186 11.1394 7.87715 9.92223 7.87791 8.63525C7.87495 7.41591 7.34768 6.257 6.43028 5.45382H9.46865V11.2866H9.13989C8.94571 11.2866 8.75963 11.3635 8.62249 11.5009C8.48515 11.638 8.40819 11.8241 8.40819 12.0183V14.802V14.8018C8.40957 14.995 8.48732 15.1797 8.62427 15.3159C8.76141 15.452 8.94671 15.5284 9.1399 15.5284H22.528C22.7202 15.5268 22.9043 15.4499 23.0401 15.3141C23.1761 15.1781 23.253 14.994 23.2544 14.8018V12.0182C23.2544 11.825 23.178 11.6397 23.0421 11.5026C22.9059 11.3656 22.7212 11.2879 22.528 11.2865H22.1939V5.45376H24.7338C25.0446 5.45376 25.3426 5.57709 25.5624 5.79693C25.7822 6.01676 25.9055 6.31473 25.9055 6.62551L25.9055 6.62567ZM13.7101 21.891C13.7101 21.7505 13.6542 21.6155 13.5548 21.5161C13.4553 21.4166 13.3204 21.3608 13.1798 21.3608H12.1194C11.8265 21.3608 11.5892 21.5982 11.5892 21.891C11.5892 22.1838 11.8266 22.4212 12.1194 22.4212H13.1798C13.3203 22.4212 13.4553 22.3654 13.5548 22.2659C13.6542 22.1665 13.7101 22.0317 13.7101 21.891ZM13.7101 20.3003C13.7101 20.1598 13.6542 20.0248 13.5548 19.9254C13.4553 19.8259 13.3204 19.7701 13.1798 19.7701H12.1194C11.8265 19.7701 11.5892 20.0075 11.5892 20.3003C11.5892 20.5931 11.8266 20.8305 12.1194 20.8305H13.1798C13.3203 20.8305 13.4553 20.7747 13.5548 20.6752C13.6542 20.5758 13.7101 20.441 13.7101 20.3003ZM13.7101 18.7096C13.7101 18.5691 13.6542 18.4341 13.5548 18.3347C13.4553 18.2354 13.3204 18.1794 13.1798 18.1794H12.1194C11.8265 18.1794 11.5892 18.4168 11.5892 18.7096C11.5892 19.0025 11.8266 19.2398 12.1194 19.2398H13.1798C13.3203 19.2398 13.4553 19.184 13.5548 19.0845C13.6542 18.9853 13.7101 18.8503 13.7101 18.7096ZM16.8915 21.8911C16.8915 21.7506 16.8355 21.6156 16.7362 21.5161C16.6368 21.4167 16.5018 21.3608 16.3613 21.3608H15.3008C15.008 21.3608 14.7706 21.5982 14.7706 21.891C14.7706 22.1839 15.008 22.4213 15.3008 22.4213H16.3613C16.5018 22.4213 16.6368 22.3654 16.7362 22.266C16.8355 22.1665 16.8915 22.0318 16.8915 21.8911ZM16.8915 20.3004C16.8915 20.1599 16.8355 20.0249 16.7362 19.9254C16.6368 19.826 16.5018 19.7701 16.3613 19.7701H15.3008C15.008 19.7701 14.7706 20.0075 14.7706 20.3004C14.7706 20.5932 15.008 20.8306 15.3008 20.8306H16.3613C16.5018 20.8306 16.6368 20.7747 16.7362 20.6753C16.8355 20.5758 16.8915 20.4411 16.8915 20.3004ZM16.8915 18.7097C16.8915 18.5692 16.8355 18.4342 16.7362 18.3347C16.6368 18.2355 16.5018 18.1794 16.3613 18.1794H15.3008C15.008 18.1794 14.7706 18.4168 14.7706 18.7097C14.7706 19.0025 15.008 19.2399 15.3008 19.2399H16.3613C16.5018 19.2399 16.6368 19.184 16.7362 19.0846C16.8355 18.9853 16.8915 18.8504 16.8915 18.7097ZM20.0727 21.8911C20.0727 21.7506 20.0169 21.6156 19.9174 21.5162C19.8182 21.4167 19.6832 21.3609 19.5425 21.3609H18.4821C18.1892 21.3609 17.9518 21.5983 17.9518 21.8911C17.9518 22.1839 18.1892 22.4213 18.4821 22.4213H19.5425C19.6832 22.4213 19.8182 22.3655 19.9174 22.266C20.0169 22.1666 20.0727 22.0318 20.0727 21.8911ZM20.0727 20.3004C20.0727 20.1599 20.0169 20.0249 19.9174 19.9255C19.8182 19.826 19.6832 19.7702 19.5425 19.7702H18.4821C18.1892 19.7702 17.9518 20.0076 17.9518 20.3004C17.9518 20.5932 18.1892 20.8306 18.4821 20.8306H19.5425C19.6832 20.8306 19.8182 20.7748 19.9174 20.6753C20.0169 20.5759 20.0727 20.4411 20.0727 20.3004ZM20.0727 18.7097C20.0727 18.5692 20.0169 18.4342 19.9174 18.3348C19.8182 18.2355 19.6832 18.1795 19.5425 18.1795H18.4821C18.1892 18.1795 17.9518 18.4169 17.9518 18.7097C17.9518 19.0026 18.1892 19.2399 18.4821 19.2399H19.5425C19.6832 19.2399 19.8182 19.1841 19.9174 19.0846C20.0169 18.9854 20.0727 18.8504 20.0727 18.7097Z" fill="#F5F5F5"/>
</svg>
