<svg width="19" height="18" viewBox="0 0 19 18" fill="none" xmlns="http://www.w3.org/2000/svg">
<path d="M8.51996 0.817607C8.8868 0.0744389 9.94654 0.0744386 10.3134 0.817607L12.403 5.0509C12.5485 5.34575 12.8297 5.55021 13.1551 5.59776L17.8295 6.28101C18.6495 6.40085 18.9762 7.40869 18.3827 7.98685L15.0018 11.2798C14.7659 11.5096 14.6583 11.8407 14.7139 12.1652L15.5116 16.8161C15.6517 17.6331 14.7942 18.256 14.0605 17.8702L9.88212 15.6728C9.59074 15.5196 9.2426 15.5196 8.95122 15.6728L4.7728 17.8702C4.03917 18.256 3.18162 17.6331 3.32174 16.8161L4.11942 12.1652C4.17508 11.8407 4.06742 11.5096 3.83154 11.2798L0.45068 7.98685C-0.142914 7.40869 0.183869 6.40085 1.00378 6.28101L5.67828 5.59776C6.00364 5.55021 6.28482 5.34575 6.43036 5.0509L8.51996 0.817607Z" fill="#FFB800"/>
</svg>
